<svg xmlns="http://www.w3.org/2000/svg" width="24" height="24" viewBox="0 0 24 24">
    <path fill="#FFF" fill-rule="nonzero" d="M22.224 0C23.203 0 24 .775 24 1.73v20.538c0 .956-.797 1.732-1.776 1.732H1.77C.794 24 0 23.224 0 22.268V1.73C0 .775.794 0 1.771 0h20.453zM20.45 20.451V14.17c0-3.084-.666-5.456-4.27-5.456-1.732 0-2.893.95-3.368 1.85h-.048V8.998H9.351V20.45h3.557v-5.666c0-1.494.283-2.94 2.136-2.94 1.825 0 1.85 1.707 1.85 3.036v5.57h3.557zM5.339 7.432a2.065 2.065 0 0 0 0-4.128 2.064 2.064 0 1 0 0 4.128zm-1.78 13.02h3.56V8.997h-3.56V20.45z"/>
</svg>
