<svg xmlns="http://www.w3.org/2000/svg" width="28" height="23" viewBox="0 0 28 23">
    <path fill="#FFF" fill-rule="evenodd" d="M28 2.723c-1.03.461-2.137.774-3.3.914A5.814 5.814 0 0 0 27.228.425a11.426 11.426 0 0 1-3.648 1.409A5.708 5.708 0 0 0 19.386 0c-3.173 0-5.745 2.6-5.745 5.806 0 .455.05.898.149 1.323-4.775-.242-9.007-2.553-11.84-6.066a5.827 5.827 0 0 0-.778 2.919 5.82 5.82 0 0 0 2.555 4.833 5.675 5.675 0 0 1-2.602-.726v.073c0 2.813 1.98 5.16 4.608 5.693a5.693 5.693 0 0 1-2.594.1c.73 2.306 2.852 3.985 5.366 4.032A11.448 11.448 0 0 1 0 20.39 16.135 16.135 0 0 0 8.806 23C19.372 23 25.15 14.152 25.15 6.48c0-.252-.005-.503-.016-.752A11.743 11.743 0 0 0 28 2.723"/>
</svg>
