<svg xmlns="http://www.w3.org/2000/svg" width="24" height="24" viewBox="0 0 24 24">
    <g fill="none" fill-rule="evenodd">
        <path d="M0 0h24v24H0z"/>
        <path fill="#959BA6" fill-rule="nonzero" d="M12 2c5.52 0 10 4.48 10 10s-4.48 10-10 10S2 17.52 2 12 6.48 2 12 2zm-1.257 12.58h1.892v-.148c.012-1.205.404-1.756 1.33-2.324 1.045-.625 1.699-1.477 1.699-2.778 0-1.92-1.494-3.125-3.665-3.125-1.989 0-3.602 1.102-3.659 3.26h2.023c.05-1.067.824-1.579 1.625-1.579.869 0 1.568.58 1.568 1.472 0 .795-.529 1.34-1.216 1.773-1.006.625-1.585 1.255-1.597 3.3v.149zm.995 3.545c.67 0 1.244-.557 1.25-1.25a1.263 1.263 0 0 0-1.25-1.239 1.24 1.24 0 0 0-1.25 1.239 1.243 1.243 0 0 0 1.25 1.25z"/>
    </g>
</svg>
