<svg xmlns="http://www.w3.org/2000/svg" width="75" height="32" viewBox="0 0 75 32">
    <path fill="#FFF" fill-rule="nonzero" d="M5.307 24.61C1.897 24.61 0 23.068 0 19.373V3.053h4.696v4.626H9.2v4.144H4.696v7.518c0 .74.29 1.06 1.062 1.06h3.248v4.21H5.307zm13.467.418c-5.307 0-9.038-3.855-9.038-8.867 0-5.045 3.763-8.9 9.038-8.9 5.307 0 9.007 3.888 9.007 8.9 0 5.012-3.732 8.867-9.007 8.867zm0-4.466c2.51 0 4.246-1.895 4.246-4.401 0-2.539-1.737-4.434-4.246-4.434-2.509 0-4.278 1.895-4.278 4.434 0 2.506 1.77 4.401 4.278 4.401zM28.96 32V7.679h4.696v1.574h.354c.836-1.06 2.22-1.992 4.568-1.992 4.374 0 7.912 3.823 7.912 8.9 0 4.947-3.28 8.867-7.655 8.867-2.606 0-4.117-1.124-4.825-2.152h-.354V32H28.96zm8.717-11.406c2.284 0 4.053-1.799 4.053-4.465 0-2.635-1.834-4.402-4.085-4.402-2.445 0-4.053 2.024-4.053 4.402 0 2.827 1.865 4.465 4.085 4.465zM52.237 5.43c-1.608 0-2.798-1.189-2.798-2.731 0-1.51 1.19-2.699 2.798-2.699 1.576 0 2.767 1.189 2.767 2.699 0 1.542-1.19 2.73-2.767 2.73zm-2.412 19.18V11.823h-2.799V7.68h7.463V24.61h-4.664zm14.013.418c-4.342 0-7.816-3.823-7.816-8.9 0-5.108 3.442-8.867 7.784-8.867 2.155 0 3.7.835 4.697 1.992h.353V7.679h4.697v12.305c0 .45.321.707.772.707H75v3.92h-4.246c-1.094 0-1.866-.836-1.866-1.8h-.353c-.901 1.285-2.252 2.217-4.697 2.217zm1.03-4.498c2.444 0 4.053-1.992 4.053-4.37 0-2.795-1.866-4.369-4.085-4.369-2.252 0-4.053 1.703-4.053 4.37 0 2.666 1.833 4.37 4.085 4.37z"/>
</svg>
